<svg id="Capa_1" enable-background="new 0 0 512 512" height="512" viewBox="0 0 512 512" width="512" xmlns="http://www.w3.org/2000/svg"><g><path d="m136 512h240c24.813 0 45-20.187 45-45v-292.147c0-20.033-7.801-38.867-21.967-53.033-.038-.039-111.275-108.875-111.275-108.875-8.381-8.348-19.656-12.945-31.758-12.945h-90c-41.355 0-75 33.645-75 75 0 19.145 7.22 36.63 19.069 49.897-12.323 13.761-19.069 31.338-19.069 49.956v292.147c0 24.813 20.187 45 45 45zm241.872-368.915c8.466 8.493 13.128 19.773 13.128 31.768v292.147c0 8.271-6.729 15-15 15h-240c-8.271 0-15-6.729-15-15v-292.147c0-11.995 4.662-23.274 13.128-31.768l.149-.146c9.642 4.52 20.389 7.061 31.723 7.051h47.58c-1.665 4.705-2.58 9.752-2.58 15.01 0 24.813 20.187 45 45 45s45-20.187 45-45-20.187-45-45-45h-90c-2.594 0-5.132-.233-7.607-.656 0 0 86.962-85.086 87-85.125 3.488-3.487 7.693-4.219 10.607-4.219s7.119.732 10.606 4.219c.039.039 111.266 108.866 111.266 108.866zm-106.872 21.915c0 8.271-6.729 15-15 15s-15-6.729-15-15 6.729-15 15-15 15 6.729 15 15zm-105-135h40.811l-75.389 73.762c-6.503-7.805-10.422-17.833-10.422-28.762 0-24.813 20.187-45 45-45z"/><path d="m316 391h-120c-8.284 0-15 6.716-15 15s6.716 15 15 15h120c8.284 0 15-6.716 15-15s-6.716-15-15-15z"/><path d="m181 346c0 8.284 6.716 15 15 15h120c8.284 0 15-6.716 15-15s-6.716-15-15-15h-120c-8.284 0-15 6.716-15 15z"/></g></svg>